<?xml version="1.0" encoding="utf-8"?>
<svg xmlns="http://www.w3.org/2000/svg" viewBox="-207.7944 11.704 935.9 351.7" width="935.9px" height="351.7px"><g id="object-0"><g class="st6" style="display: none;" transform="matrix(1, 0, 0, 1, -279.894409, -352.395996)"><path class="st0" d="M634.5,607.2h-21.5v20.9h-19.5v-20.9h-21.6v-18.5h21.6v-20.9h19.5v20.9h21.5v18.5Z" style="fill: rgb(77, 77, 77);"/><path class="st5" d="M730.8,586.3c0,20.2-15.2,32.8-39.5,32.8h-15.5v23.2h-25.1v-88.9h40.6c24.3.1,39.5,12.6,39.5,32.9ZM705.4,586.3c0-8.3-5.2-13.1-15.6-13.1h-14v26h14c10.4,0,15.6-4.7,15.6-12.9Z" style="fill: rgb(212, 45, 48);"/><path class="st5" d="M743.2,548.1h24.1v94.2h-24.1v-94.2Z" style="fill: rgb(212, 45, 48);"/><path class="st5" d="M855.2,573.5v68.8h-23v-7.3c-5.2,5.7-12.6,8.5-20.4,8.5-16.9,0-29.2-9.6-29.2-31.5v-38.5h24.1v34.5c0,10.7,4.2,14.9,11.4,14.9s12.9-4.7,12.9-16.2v-33.1h24.2Z" style="fill: rgb(212, 45, 48);"/><path class="st5" d="M865.3,636.3l7.2-16.5c6.3,3.9,15.6,6.3,24,6.3s10.8-1.8,10.8-4.7c0-9.3-40.6,1.3-40.6-26.3s11.9-22.8,33.5-22.8,20.3,2,27.2,5.8l-7.2,16.4c-6.9-3.8-13.7-5.1-19.8-5.1s-11,2.3-11,4.8c0,9.5,40.5-.8,40.5,26.5s-11.7,22.6-34,22.6c-11.8.2-23.9-2.8-30.6-7Z" style="fill: rgb(212, 45, 48);"/></g><path class="st2" d="M 507.806 60.004 L 517.706 60.004 L 517.706 104.404 L 507.806 104.404 L 507.806 86.904 L 490.106 86.904 L 490.106 104.404 L 480.206 104.404 L 480.206 60.004 L 490.106 60.004 L 490.106 78.504 L 507.806 78.504 L 507.806 60.004 Z M 454.106 95.604 C 459.006 95.604 462.906 93.704 466.006 89.804 L 472.306 96.304 C 467.306 102.004 461.306 104.804 454.506 104.804 C 447.706 104.804 442.006 102.604 437.606 98.304 C 433.206 94.004 431.006 88.504 431.006 81.904 C 431.006 75.304 433.306 69.804 437.806 65.404 C 442.306 61.004 447.806 58.804 454.306 58.804 C 460.806 58.804 467.706 61.604 472.606 67.104 L 466.406 74.104 C 463.306 70.204 459.406 68.304 454.706 68.304 C 450.006 68.304 447.806 69.504 445.106 72.004 C 442.506 74.404 441.106 77.704 441.106 81.804 C 441.106 85.904 442.306 89.204 444.806 91.704 C 447.606 94.304 450.606 95.604 454.106 95.604 L 454.106 95.604 Z M 413.906 68.504 L 413.906 104.304 L 404.006 104.304 L 404.006 68.504 L 391.406 68.504 L 391.406 59.904 L 426.506 59.904 L 426.506 68.504 L 413.906 68.504 Z M 369.306 73.204 L 363.706 86.104 L 374.806 86.104 L 369.306 73.204 Z M 382.706 104.304 L 378.606 94.704 L 360.006 94.704 L 355.906 104.304 L 345.406 104.304 L 364.606 59.904 L 374.206 59.904 L 393.406 104.304 L 382.706 104.304 Z M 330.206 76.404 L 318.206 100.704 L 312.306 100.704 L 300.406 76.404 L 300.406 104.304 L 290.506 104.304 L 290.506 59.904 L 303.906 59.904 L 315.306 84.304 L 326.806 59.904 L 340.106 59.904 L 340.106 104.304 L 330.206 104.304 L 330.206 76.404 Z" style="display: none; fill: rgb(77, 77, 77); perspective-origin: 50% 50%;"/><path class="st2" d="M 649.906 127.404 L 649.906 136.204 L 627.806 136.204 L 627.806 145.304 L 647.706 145.304 L 647.706 153.704 L 627.806 153.704 L 627.806 162.904 L 650.606 162.904 L 650.606 171.704 L 617.906 171.704 L 617.906 127.304 L 649.906 127.304 L 649.906 127.404 Z M 599.106 149.204 L 609.106 149.204 L 609.106 164.904 C 604.706 169.804 598.606 172.304 590.806 172.304 C 583.006 172.304 578.806 170.104 574.406 165.804 C 570.006 161.504 567.806 156.004 567.806 149.404 C 567.806 142.804 570.106 137.304 574.606 132.904 C 579.106 128.504 584.506 126.304 590.906 126.304 C 597.306 126.304 602.806 128.404 607.506 132.604 L 602.406 140.004 C 600.406 138.304 598.606 137.104 596.906 136.404 C 595.206 135.704 593.406 135.404 591.506 135.404 C 587.706 135.404 584.606 136.704 582.006 139.204 C 579.406 141.804 578.106 145.104 578.106 149.304 C 578.106 153.504 579.306 156.804 581.806 159.404 C 584.306 161.904 587.206 163.204 590.706 163.204 C 594.206 163.204 597.006 162.504 599.306 161.204 L 599.306 149.204 L 599.106 149.204 Z M 549.406 127.404 L 559.306 127.404 L 559.306 171.804 L 549.406 171.804 L 528.306 144.004 L 528.306 171.804 L 518.406 171.804 L 518.406 127.404 L 527.706 127.404 L 549.506 156.004 L 549.506 127.404 L 549.406 127.404 Z M 489.306 140.604 L 483.706 153.504 L 494.806 153.504 L 489.306 140.604 Z M 502.706 171.804 L 498.606 162.204 L 480.006 162.204 L 475.906 171.804 L 465.406 171.804 L 484.606 127.404 L 494.206 127.404 L 513.406 171.804 L 502.706 171.804 Z M 450.206 127.404 L 460.106 127.404 L 460.106 171.804 L 450.206 171.804 L 450.206 154.304 L 432.506 154.304 L 432.506 171.804 L 422.606 171.804 L 422.606 127.404 L 432.506 127.404 L 432.506 145.904 L 450.206 145.904 L 450.206 127.404 L 450.206 127.404 Z M 396.506 163.104 C 401.406 163.104 405.306 161.204 408.406 157.304 L 414.706 163.804 C 409.706 169.504 403.706 172.304 396.906 172.304 C 390.106 172.304 384.406 170.104 380.006 165.804 C 375.606 161.504 373.406 156.004 373.406 149.404 C 373.406 142.804 375.706 137.304 380.206 132.904 C 384.706 128.504 390.206 126.304 396.706 126.304 C 403.206 126.304 410.106 129.104 415.006 134.604 L 408.806 141.604 C 405.706 137.704 401.806 135.804 397.106 135.804 C 392.406 135.804 390.206 137.004 387.506 139.504 C 384.906 141.904 383.506 145.204 383.506 149.304 C 383.506 153.404 384.706 156.704 387.206 159.204 C 390.006 161.804 393.006 163.104 396.506 163.104 L 396.506 163.104 Z M 357.006 127.404 L 368.906 127.404 L 355.106 148.804 L 370.106 171.804 L 358.006 171.804 L 348.506 157.204 L 339.106 171.804 L 327.206 171.804 L 342.106 149.104 L 328.206 127.404 L 340.106 127.404 L 348.506 140.504 L 357.006 127.404 L 357.006 127.404 Z M 322.506 127.404 L 322.506 136.204 L 300.406 136.204 L 300.406 145.304 L 320.306 145.304 L 320.306 153.704 L 300.406 153.704 L 300.406 162.904 L 323.206 162.904 L 323.206 171.704 L 290.506 171.704 L 290.506 127.304 L 322.506 127.304 L 322.506 127.404 Z" style="display: none; fill: rgb(77, 77, 77); perspective-origin: 50% 50%;"/><g transform="matrix(1, 0, 0, 1, -279.894409, -352.395996)"><polygon class="st3" points="398.4 619.6 351 701.7 259 542.2 166.9 701.7 72.1 701.7 259 378.1 351 537.6 443 378.1 490.4 460.2 443 542.2 401.7 470.4 356.9 547.9 398.4 619.6" style="fill: rgb(102, 102, 102); fill-rule: evenodd;"/><polygon class="st3" points="629.9 701.7 535.2 701.7 490.4 624.4 537.9 542.2 629.9 701.7" style="fill: rgb(102, 102, 102); fill-rule: evenodd;"/><polygon class="st4" points="351 701.7 445.8 701.7 585.2 460.2 537.9 378.1 351 701.7" style="fill: rgb(212, 45, 48); fill-rule: evenodd;"/><path class="st1" d="M656.9,394.1l-15.9-16h12.3l9.4,10,9-10h11l-14.4,15.2,17.6,17.7h-12.5l-10.8-11.6-10,11.5h-11.2l15.5-16.8ZM615.4,396.1l13.7-18.1h7.2v32.9h-8.6v-19.2l-11.7,15.5h-2.4l-11.8-15.7v19.5h-7.8v-32.9h7.3l14.1,18Z" style="fill: rgb(77, 77, 77); fill-rule: evenodd;"/><rect class="st0" x="693.4" y="364.1" width="3.9" height="351.7" style="fill: rgb(77, 77, 77);"/><path class="st5" d="M1007.9,575.9h-89.7c0,0,0,87.8,0,87.8h-66.5c0,0,0-87.6,0-87.6h-89.2c0,0,0-62.8,0-62.8h89.2c0-.1,0-87.8,0-87.8h66.6s0,87.7,0,87.7h89.7c0-.1,0,62.7,0,62.7Z" style="fill: rgb(212, 45, 48);"/></g></g></svg>